v -1.314715 0 0.096874
v -1.120967 0 0.096874
v -1.120967 0 -0.09687388
v -1.314715 0 -0.09687388
v -1.314715 0.5341051 -0.09687388
v -1.120967 0.5341051 -0.09687388
v -1.120967 0.5341051 0.096874
v -1.314715 0.5341051 0.096874
v -1.314715 0 0.096874
v -1.314715 0.5341051 0.096874
v -1.120967 0.5341051 0.096874
v -1.120967 0 0.096874
v -1.120967 0 0.096874
v -1.120967 0.5341051 0.096874
v -1.120967 0.5341051 -0.09687388
v -1.120967 0 -0.09687388
v -1.120967 0 -0.09687388
v -1.120967 0.5341051 -0.09687388
v -1.314715 0.5341051 -0.09687388
v -1.314715 0 -0.09687388
v -1.314715 0 -0.09687388
v -1.314715 0.5341051 -0.09687388
v -1.314715 0.5341051 0.096874
v -1.314715 0 0.096874
v 1.120967 0 0.096874
v 1.314715 0 0.096874
v 1.314715 0 -0.09687388
v 1.120967 0 -0.09687388
v 1.120967 0.5341051 -0.09687388
v 1.314715 0.5341051 -0.09687388
v 1.314715 0.5341051 0.096874
v 1.120967 0.5341051 0.096874
v 1.120967 0 0.096874
v 1.120967 0.5341051 0.096874
v 1.314715 0.5341051 0.096874
v 1.314715 0 0.096874
v 1.314715 0 0.096874
v 1.314715 0.5341051 0.096874
v 1.314715 0.5341051 -0.09687388
v 1.314715 0 -0.09687388
v 1.314715 0 -0.09687388
v 1.314715 0.5341051 -0.09687388
v 1.120967 0.5341051 -0.09687388
v 1.120967 0 -0.09687388
v 1.120967 0 -0.09687388
v 1.120967 0.5341051 -0.09687388
v 1.120967 0.5341051 0.096874
v 1.120967 0 0.096874
v -0.09687412 0 -1.314715
v -0.09687412 0 -1.120967
v 0.09687388 0 -1.120967
v 0.09687388 0 -1.314715
v 0.09687388 0.5341051 -1.314715
v 0.09687388 0.5341051 -1.120967
v -0.09687412 0.5341051 -1.120967
v -0.09687412 0.5341051 -1.314715
v -0.09687412 0 -1.314715
v -0.09687412 0.5341051 -1.314715
v -0.09687412 0.5341051 -1.120967
v -0.09687412 0 -1.120967
v -0.09687412 0 -1.120967
v -0.09687412 0.5341051 -1.120967
v 0.09687388 0.5341051 -1.120967
v 0.09687388 0 -1.120967
v 0.09687388 0 -1.120967
v 0.09687388 0.5341051 -1.120967
v 0.09687388 0.5341051 -1.314715
v 0.09687388 0 -1.314715
v 0.09687388 0 -1.314715
v 0.09687388 0.5341051 -1.314715
v -0.09687412 0.5341051 -1.314715
v -0.09687412 0 -1.314715
v -0.09687412 0 1.120967
v -0.09687412 0 1.314715
v 0.09687388 0 1.314715
v 0.09687388 0 1.120967
v 0.09687388 0.5341051 1.120967
v 0.09687388 0.5341051 1.314715
v -0.09687412 0.5341051 1.314715
v -0.09687412 0.5341051 1.120967
v -0.09687412 0 1.120967
v -0.09687412 0.5341051 1.120967
v -0.09687412 0.5341051 1.314715
v -0.09687412 0 1.314715
v -0.09687412 0 1.314715
v -0.09687412 0.5341051 1.314715
v 0.09687388 0.5341051 1.314715
v 0.09687388 0 1.314715
v 0.09687388 0 1.314715
v 0.09687388 0.5341051 1.314715
v 0.09687388 0.5341051 1.120967
v 0.09687388 0 1.120967
v 0.09687388 0 1.120967
v 0.09687388 0.5341051 1.120967
v -0.09687412 0.5341051 1.120967
v -0.09687412 0 1.120967
vn -0.1660202 -0.9720466 0.1660202
vn 0.1660202 -0.9720466 0.1660202
vn 0.1660202 -0.9720466 -0.1660202
vn -0.1660202 -0.9720466 -0.1660202
vn -0.1660202 0.9720466 -0.1660202
vn 0.1660202 0.9720466 -0.1660202
vn 0.1660202 0.9720466 0.1660202
vn -0.1660202 0.9720466 0.1660202
vn -0.1984371 -0.5470315 0.8132524
vn -0.1984371 0.5470315 0.8132524
vn 0.1984371 0.5470315 0.8132524
vn 0.1984371 -0.5470315 0.8132524
vn 0.8132524 -0.5470315 0.1984371
vn 0.8132524 0.5470315 0.1984371
vn 0.8132524 0.5470315 -0.1984371
vn 0.8132524 -0.5470315 -0.1984371
vn 0.1984371 -0.5470315 -0.8132524
vn 0.1984371 0.5470315 -0.8132524
vn -0.1984371 0.5470315 -0.8132524
vn -0.1984371 -0.5470315 -0.8132524
vn -0.8132524 -0.5470315 -0.1984371
vn -0.8132524 0.5470315 -0.1984371
vn -0.8132524 0.5470315 0.1984371
vn -0.8132524 -0.5470315 0.1984371
vn -0.1660202 -0.9720466 0.1660202
vn 0.1660202 -0.9720466 0.1660202
vn 0.1660202 -0.9720466 -0.1660202
vn -0.1660202 -0.9720466 -0.1660202
vn -0.1660202 0.9720466 -0.1660202
vn 0.1660202 0.9720466 -0.1660202
vn 0.1660202 0.9720466 0.1660202
vn -0.1660202 0.9720466 0.1660202
vn -0.1984371 -0.5470315 0.8132524
vn -0.1984371 0.5470315 0.8132524
vn 0.1984371 0.5470315 0.8132524
vn 0.1984371 -0.5470315 0.8132524
vn 0.8132524 -0.5470315 0.1984371
vn 0.8132524 0.5470315 0.1984371
vn 0.8132524 0.5470315 -0.1984371
vn 0.8132524 -0.5470315 -0.1984371
vn 0.1984371 -0.5470315 -0.8132524
vn 0.1984371 0.5470315 -0.8132524
vn -0.1984371 0.5470315 -0.8132524
vn -0.1984371 -0.5470315 -0.8132524
vn -0.8132524 -0.5470315 -0.1984371
vn -0.8132524 0.5470315 -0.1984371
vn -0.8132524 0.5470315 0.1984371
vn -0.8132524 -0.5470315 0.1984371
vn -0.1660202 -0.9720466 -0.1660202
vn -0.1660202 -0.9720466 0.1660202
vn 0.1660202 -0.9720466 0.1660202
vn 0.1660202 -0.9720466 -0.1660202
vn 0.1660202 0.9720466 -0.1660202
vn 0.1660202 0.9720466 0.1660202
vn -0.1660202 0.9720466 0.1660202
vn -0.1660202 0.9720466 -0.1660202
vn -0.8132524 -0.5470315 -0.198437
vn -0.8132524 0.5470315 -0.198437
vn -0.8132524 0.5470315 0.1984371
vn -0.8132524 -0.5470315 0.1984371
vn -0.1984371 -0.5470315 0.8132524
vn -0.1984371 0.5470315 0.8132524
vn 0.1984371 0.5470315 0.8132524
vn 0.1984371 -0.5470315 0.8132524
vn 0.8132524 -0.5470315 0.198437
vn 0.8132524 0.5470315 0.198437
vn 0.8132524 0.5470315 -0.1984371
vn 0.8132524 -0.5470315 -0.1984371
vn 0.1984371 -0.5470315 -0.8132524
vn 0.1984371 0.5470315 -0.8132524
vn -0.1984371 0.5470315 -0.8132524
vn -0.1984371 -0.5470315 -0.8132524
vn -0.1660202 -0.9720466 -0.1660202
vn -0.1660202 -0.9720466 0.1660202
vn 0.1660202 -0.9720466 0.1660202
vn 0.1660202 -0.9720466 -0.1660202
vn 0.1660202 0.9720466 -0.1660202
vn 0.1660202 0.9720466 0.1660202
vn -0.1660202 0.9720466 0.1660202
vn -0.1660202 0.9720466 -0.1660202
vn -0.8132524 -0.5470315 -0.198437
vn -0.8132524 0.5470315 -0.198437
vn -0.8132524 0.5470315 0.1984371
vn -0.8132524 -0.5470315 0.1984371
vn -0.1984371 -0.5470315 0.8132524
vn -0.1984371 0.5470315 0.8132524
vn 0.1984371 0.5470315 0.8132524
vn 0.1984371 -0.5470315 0.8132524
vn 0.8132524 -0.5470315 0.198437
vn 0.8132524 0.5470315 0.198437
vn 0.8132524 0.5470315 -0.1984371
vn 0.8132524 -0.5470315 -0.1984371
vn 0.1984371 -0.5470315 -0.8132524
vn 0.1984371 0.5470315 -0.8132524
vn -0.1984371 0.5470315 -0.8132524
vn -0.1984371 -0.5470315 -0.8132524
vt 0.6259372 0.50125
vt 0.8753124 0.50125
vt 0.1271876 0.50125
vt 0.3765628 0.50125
vt 0.3765628 0.9843601
vt 0.1271876 0.9843601
vt 0.8753124 0.9843601
vt 0.6259372 0.9843601
vt 0.6259372 0.50125
vt 0.6259372 0.9843601
vt 0.8753124 0.9843601
vt 0.8753124 0.50125
vt 0.8753124 0.50125
vt 0.8753124 0.9843601
vt 0.1271876 0.9843601
vt 0.1271876 0.50125
vt 0.1271876 0.50125
vt 0.1271876 0.9843601
vt 0.3765628 0.9843601
vt 0.3765628 0.50125
vt 0.3765628 0.50125
vt 0.3765628 0.9843601
vt 0.6259372 0.9843601
vt 0.6259372 0.50125
vt 0.6259372 0.50125
vt 0.8753124 0.50125
vt 0.1271876 0.50125
vt 0.3765628 0.50125
vt 0.3765628 0.9843601
vt 0.1271876 0.9843601
vt 0.8753124 0.9843601
vt 0.6259372 0.9843601
vt 0.6259372 0.50125
vt 0.6259372 0.9843601
vt 0.8753124 0.9843601
vt 0.8753124 0.50125
vt 0.8753124 0.50125
vt 0.8753124 0.9843601
vt 0.1271876 0.9843601
vt 0.1271876 0.50125
vt 0.1271876 0.50125
vt 0.1271876 0.9843601
vt 0.3765628 0.9843601
vt 0.3765628 0.50125
vt 0.3765628 0.50125
vt 0.3765628 0.9843601
vt 0.6259372 0.9843601
vt 0.6259372 0.50125
vt 0.3765628 0.50125
vt 0.6259372 0.50125
vt 0.8753124 0.50125
vt 0.1271876 0.50125
vt 0.1271876 0.9843601
vt 0.8753124 0.9843601
vt 0.6259372 0.9843601
vt 0.3765628 0.9843601
vt 0.3765628 0.50125
vt 0.3765628 0.9843601
vt 0.6259372 0.9843601
vt 0.6259372 0.50125
vt 0.6259372 0.50125
vt 0.6259372 0.9843601
vt 0.8753124 0.9843601
vt 0.8753124 0.50125
vt 0.8753124 0.50125
vt 0.8753124 0.9843601
vt 0.1271876 0.9843601
vt 0.1271876 0.50125
vt 0.1271876 0.50125
vt 0.1271876 0.9843601
vt 0.3765628 0.9843601
vt 0.3765628 0.50125
vt 0.3765628 0.50125
vt 0.6259372 0.50125
vt 0.8753124 0.50125
vt 0.1271876 0.50125
vt 0.1271876 0.9843601
vt 0.8753124 0.9843601
vt 0.6259372 0.9843601
vt 0.3765628 0.9843601
vt 0.3765628 0.50125
vt 0.3765628 0.9843601
vt 0.6259372 0.9843601
vt 0.6259372 0.50125
vt 0.6259372 0.50125
vt 0.6259372 0.9843601
vt 0.8753124 0.9843601
vt 0.8753124 0.50125
vt 0.8753124 0.50125
vt 0.8753124 0.9843601
vt 0.1271876 0.9843601
vt 0.1271876 0.50125
vt 0.1271876 0.50125
vt 0.1271876 0.9843601
vt 0.3765628 0.9843601
vt 0.3765628 0.50125
f 4/4/4 2/2/2 1/1/1
f 4/4/4 3/3/3 2/2/2
f 8/8/8 6/6/6 5/5/5
f 8/8/8 7/7/7 6/6/6
f 12/12/12 10/10/10 9/9/9
f 12/12/12 11/11/11 10/10/10
f 16/16/16 14/14/14 13/13/13
f 16/16/16 15/15/15 14/14/14
f 20/20/20 18/18/18 17/17/17
f 20/20/20 19/19/19 18/18/18
f 24/24/24 22/22/22 21/21/21
f 24/24/24 23/23/23 22/22/22
f 28/28/28 26/26/26 25/25/25
f 28/28/28 27/27/27 26/26/26
f 32/32/32 30/30/30 29/29/29
f 32/32/32 31/31/31 30/30/30
f 36/36/36 34/34/34 33/33/33
f 36/36/36 35/35/35 34/34/34
f 40/40/40 38/38/38 37/37/37
f 40/40/40 39/39/39 38/38/38
f 44/44/44 42/42/42 41/41/41
f 44/44/44 43/43/43 42/42/42
f 48/48/48 46/46/46 45/45/45
f 48/48/48 47/47/47 46/46/46
f 52/52/52 50/50/50 49/49/49
f 52/52/52 51/51/51 50/50/50
f 56/56/56 54/54/54 53/53/53
f 56/56/56 55/55/55 54/54/54
f 60/60/60 58/58/58 57/57/57
f 60/60/60 59/59/59 58/58/58
f 64/64/64 62/62/62 61/61/61
f 64/64/64 63/63/63 62/62/62
f 68/68/68 66/66/66 65/65/65
f 68/68/68 67/67/67 66/66/66
f 72/72/72 70/70/70 69/69/69
f 72/72/72 71/71/71 70/70/70
f 76/76/76 74/74/74 73/73/73
f 76/76/76 75/75/75 74/74/74
f 80/80/80 78/78/78 77/77/77
f 80/80/80 79/79/79 78/78/78
f 84/84/84 82/82/82 81/81/81
f 84/84/84 83/83/83 82/82/82
f 88/88/88 86/86/86 85/85/85
f 88/88/88 87/87/87 86/86/86
f 92/92/92 90/90/90 89/89/89
f 92/92/92 91/91/91 90/90/90
f 96/96/96 94/94/94 93/93/93
f 96/96/96 95/95/95 94/94/94
