v -0.1839107 0 0.09154125
v 0.1839107 0 0.09154125
v 0.1839107 0 -0.09154125
v -0.1839107 0 -0.09154125
v -0.2061265 0.08271894 -0.09154125
v 0.2061265 0.08271894 -0.09154125
v 0.2061265 0.08271894 0.09154125
v -0.2061265 0.08271894 0.09154125
v -0.1839107 0 0.09154125
v -0.2061265 0.08271894 0.09154125
v 0.2061265 0.08271894 0.09154125
v 0.1839107 0 0.09154125
v 0.1839107 0 0.09154125
v 0.2061265 0.08271894 0.09154125
v 0.2061265 0.08271894 -0.09154125
v 0.1839107 0 -0.09154125
v 0.1839107 0 -0.09154125
v 0.2061265 0.08271894 -0.09154125
v -0.2061265 0.08271894 -0.09154125
v -0.1839107 0 -0.09154125
v -0.1839107 0 -0.09154125
v -0.2061265 0.08271894 -0.09154125
v -0.2061265 0.08271894 0.09154125
v -0.1839107 0 0.09154125
v -0.1912671 0.08271894 0.0952029
v 0.1912671 0.08271894 0.0952029
v 0.1912671 0.08271894 -0.09520289
v -0.1912671 0.08271894 -0.09520289
v -0.1912671 0.1102919 -0.09520289
v 0.1912671 0.1102919 -0.09520289
v 0.1912671 0.1102919 0.0952029
v -0.1912671 0.1102919 0.0952029
v -0.1912671 0.08547623 0.1190036
v -0.1912671 0.1075346 0.1190036
v 0.1912671 0.1075346 0.1190036
v 0.1912671 0.08547623 0.1190036
v 0.2390839 0.08547623 0.0952029
v 0.2390839 0.1075346 0.0952029
v 0.2390839 0.1075346 -0.09520289
v 0.2390839 0.08547623 -0.09520289
v 0.1912671 0.08547623 -0.1190036
v 0.1912671 0.1075346 -0.1190036
v -0.1912671 0.1075346 -0.1190036
v -0.1912671 0.08547623 -0.1190036
v -0.2390839 0.08547623 -0.09520289
v -0.2390839 0.1075346 -0.09520289
v -0.2390839 0.1075346 0.0952029
v -0.2390839 0.08547623 0.0952029
v -0.1912671 0.1102919 0.0952029
v 0.1912671 0.1102919 0.0952029
v 0.1912671 0.1075346 0.1190036
v -0.1912671 0.1075346 0.1190036
v 0.1912671 0.1102919 -0.09520289
v -0.1912671 0.1102919 -0.09520289
v -0.1912671 0.1075346 -0.1190036
v 0.1912671 0.1075346 -0.1190036
v 0.1912671 0.1102919 0.0952029
v 0.1912671 0.1102919 -0.09520289
v 0.2390839 0.1075346 -0.09520289
v 0.2390839 0.1075346 0.0952029
v -0.2390839 0.1075346 0.0952029
v -0.2390839 0.1075346 -0.09520289
v -0.1912671 0.1102919 -0.09520289
v -0.1912671 0.1102919 0.0952029
v -0.1912671 0.08547623 0.1190036
v 0.1912671 0.08547623 0.1190036
v 0.1912671 0.08271894 0.0952029
v -0.1912671 0.08271894 0.0952029
v 0.2390839 0.08547623 0.0952029
v 0.2390839 0.08547623 -0.09520289
v 0.1912671 0.08271894 -0.09520289
v 0.1912671 0.08271894 0.0952029
v 0.1912671 0.08547623 -0.1190036
v -0.1912671 0.08547623 -0.1190036
v -0.1912671 0.08271894 -0.09520289
v 0.1912671 0.08271894 -0.09520289
v -0.2390839 0.08547623 -0.09520289
v -0.2390839 0.08547623 0.0952029
v -0.1912671 0.08271894 0.0952029
v -0.1912671 0.08271894 -0.09520289
v 0.2390839 0.1075346 0.0952029
v 0.2390839 0.08547623 0.0952029
v 0.1912671 0.08547623 0.1190036
v 0.1912671 0.1075346 0.1190036
v 0.1912671 0.1075346 -0.1190036
v 0.1912671 0.08547623 -0.1190036
v 0.2390839 0.08547623 -0.09520289
v 0.2390839 0.1075346 -0.09520289
v -0.2390839 0.1075346 -0.09520289
v -0.2390839 0.08547623 -0.09520289
v -0.1912671 0.08547623 -0.1190036
v -0.1912671 0.1075346 -0.1190036
v -0.2390839 0.08547623 0.0952029
v -0.2390839 0.1075346 0.0952029
v -0.1912671 0.1075346 0.1190036
v -0.1912671 0.08547623 0.1190036
v -0.2390839 0.08547623 0.0952029
v -0.1912671 0.08547623 0.1190036
v -0.1912671 0.08271894 0.0952029
v 0.1912671 0.08271894 0.0952029
v 0.1912671 0.08547623 0.1190036
v 0.2390839 0.08547623 0.0952029
v 0.1912671 0.08271894 -0.09520289
v 0.2390839 0.08547623 -0.09520289
v 0.1912671 0.08547623 -0.1190036
v -0.1912671 0.08271894 -0.09520289
v -0.1912671 0.08547623 -0.1190036
v -0.2390839 0.08547623 -0.09520289
v -0.1912671 0.1102919 0.0952029
v -0.1912671 0.1075346 0.1190036
v -0.2390839 0.1075346 0.0952029
v 0.2390839 0.1075346 0.0952029
v 0.1912671 0.1075346 0.1190036
v 0.1912671 0.1102919 0.0952029
v 0.1912671 0.1075346 -0.1190036
v 0.2390839 0.1075346 -0.09520289
v 0.1912671 0.1102919 -0.09520289
v -0.2390839 0.1075346 -0.09520289
v -0.1912671 0.1075346 -0.1190036
v -0.1912671 0.1102919 -0.09520289
v -0.1839107 0.1102919 0.09154125
v 0.1839107 0.1102919 0.09154125
v 0.1839107 0.1102919 -0.09154125
v -0.1839107 0.1102919 -0.09154125
v -0.1839107 0.2757298 -0.09154125
v 0.1839107 0.2757298 -0.09154125
v 0.1839107 0.2757298 0.09154125
v -0.1839107 0.2757298 0.09154125
v -0.1839107 0.1102919 0.09154125
v -0.1839107 0.2757298 0.09154125
v 0.1839107 0.2757298 0.09154125
v 0.1839107 0.1102919 0.09154125
v 0.1839107 0.1102919 0.09154125
v 0.1839107 0.2757298 0.09154125
v 0.1839107 0.2757298 -0.09154125
v 0.1839107 0.1102919 -0.09154125
v 0.1839107 0.1102919 -0.09154125
v 0.1839107 0.2757298 -0.09154125
v -0.1839107 0.2757298 -0.09154125
v -0.1839107 0.1102919 -0.09154125
v -0.1839107 0.1102919 -0.09154125
v -0.1839107 0.2757298 -0.09154125
v -0.1839107 0.2757298 0.09154125
v -0.1839107 0.1102919 0.09154125
vn -0.5671253 -0.7737466 0.2822857
vn 0.5671253 -0.7737466 0.2822857
vn 0.5671253 -0.7737466 -0.2822857
vn -0.5671253 -0.7737466 -0.2822857
vn -0.5850661 0.7682358 -0.2598292
vn 0.5850661 0.7682358 -0.2598292
vn 0.5850661 0.7682358 0.2598292
vn -0.5850661 0.7682358 0.2598292
vn -0.5177132 -0.116428 0.8475952
vn -0.5373677 0.1078233 0.836427
vn 0.5373677 0.1078233 0.836427
vn 0.5177132 -0.116428 0.8475952
vn 0.9459472 -0.2343811 0.2241637
vn 0.977003 -0.0413946 0.2091685
vn 0.977003 -0.0413946 -0.2091685
vn 0.9459472 -0.2343811 -0.2241637
vn 0.5177132 -0.116428 -0.8475952
vn 0.5373677 0.1078233 -0.836427
vn -0.5373677 0.1078233 -0.836427
vn -0.5177132 -0.116428 -0.8475952
vn -0.9459472 -0.2343811 -0.2241637
vn -0.977003 -0.0413946 -0.2091685
vn -0.977003 -0.0413946 0.2091685
vn -0.9459472 -0.2343811 0.2241637
vn -0.612304 -0.7295184 0.3047734
vn 0.612304 -0.7295184 0.3047734
vn 0.612304 -0.7295184 -0.3047734
vn -0.612304 -0.7295184 -0.3047734
vn -0.6123039 0.7295184 -0.3047733
vn 0.6123039 0.7295184 -0.3047733
vn 0.6123039 0.7295184 0.3047733
vn -0.6123039 0.7295184 0.3047733
vn -0.4851738 -0.02797695 0.87397
vn -0.4851738 0.02797699 0.87397
vn 0.4851738 0.02797699 0.87397
vn 0.4851738 -0.02797695 0.87397
vn 0.9818861 -0.02180438 0.1882134
vn 0.9818861 0.02180441 0.1882134
vn 0.9818861 0.02180441 -0.1882134
vn 0.9818861 -0.02180438 -0.1882134
vn 0.4851738 -0.02797695 -0.87397
vn 0.4851738 0.02797699 -0.87397
vn -0.4851738 0.02797699 -0.87397
vn -0.4851738 -0.02797695 -0.87397
vn -0.9818861 -0.02180438 -0.1882134
vn -0.9818861 0.02180441 -0.1882134
vn -0.9818861 0.02180441 0.1882134
vn -0.9818861 -0.02180438 0.1882134
vn -0.59821 0.7082778 0.3748163
vn 0.59821 0.7082778 0.3748163
vn 0.5693569 0.6997391 0.4315064
vn -0.5693569 0.6997391 0.4315064
vn 0.59821 0.7082778 -0.3748163
vn -0.59821 0.7082778 -0.3748163
vn -0.5693569 0.6997391 -0.4315064
vn 0.5693569 0.6997391 -0.4315064
vn 0.6365932 0.7114317 0.297681
vn 0.6365932 0.7114317 -0.297681
vn 0.6657613 0.7031714 -0.2496234
vn 0.6657613 0.7031714 0.2496234
vn -0.6657613 0.7031714 0.2496234
vn -0.6657613 0.7031714 -0.2496234
vn -0.6365932 0.7114317 -0.297681
vn -0.6365932 0.7114317 0.297681
vn -0.5693569 -0.6997391 0.4315064
vn 0.5693569 -0.6997391 0.4315064
vn 0.59821 -0.7082778 0.3748163
vn -0.59821 -0.7082778 0.3748163
vn 0.6657614 -0.7031714 0.2496234
vn 0.6657614 -0.7031714 -0.2496234
vn 0.6365933 -0.7114317 -0.297681
vn 0.6365933 -0.7114317 0.297681
vn 0.5693569 -0.6997391 -0.4315064
vn -0.5693569 -0.6997391 -0.4315064
vn -0.59821 -0.7082778 -0.3748163
vn 0.59821 -0.7082778 -0.3748163
vn -0.6657614 -0.7031714 -0.2496234
vn -0.6657614 -0.7031714 0.2496234
vn -0.6365933 -0.7114317 0.297681
vn -0.6365933 -0.7114317 -0.297681
vn 0.7354859 0.02292377 0.6771522
vn 0.7354859 -0.02292374 0.6771522
vn 0.672492 -0.02542117 0.7396678
vn 0.672492 0.02542121 0.7396678
vn 0.672492 0.02542121 -0.7396678
vn 0.672492 -0.02542117 -0.7396678
vn 0.7354859 -0.02292374 -0.6771522
vn 0.7354859 0.02292377 -0.6771522
vn -0.7354859 0.02292377 -0.6771522
vn -0.7354859 -0.02292374 -0.6771522
vn -0.672492 -0.02542117 -0.7396678
vn -0.672492 0.02542121 -0.7396678
vn -0.7354859 -0.02292374 0.6771522
vn -0.7354859 0.02292377 0.6771522
vn -0.672492 0.02542121 0.7396678
vn -0.672492 -0.02542117 0.7396678
vn -0.6531591 -0.6857458 0.321148
vn -0.5949315 -0.6839116 0.4222811
vn -0.6224554 -0.6915817 0.3664208
vn 0.6224554 -0.6915817 0.3664208
vn 0.5949315 -0.6839116 0.4222811
vn 0.6531591 -0.6857458 0.321148
vn 0.6224554 -0.6915817 -0.3664208
vn 0.6531591 -0.6857458 -0.321148
vn 0.5949315 -0.6839116 -0.4222811
vn -0.6224554 -0.6915817 -0.3664208
vn -0.5949315 -0.6839116 -0.4222811
vn -0.6531591 -0.6857458 -0.321148
vn -0.6224554 0.6915817 0.3664208
vn -0.5949315 0.6839116 0.4222811
vn -0.6531591 0.6857458 0.321148
vn 0.6531591 0.6857458 0.321148
vn 0.5949315 0.6839116 0.4222811
vn 0.6224554 0.6915817 0.3664208
vn 0.5949315 0.6839116 -0.4222811
vn 0.6531591 0.6857458 -0.321148
vn 0.6224554 0.6915817 -0.3664208
vn -0.6531591 0.6857458 -0.321148
vn -0.5949315 0.6839116 -0.4222811
vn -0.6224554 0.6915817 -0.3664208
vn -0.5010448 -0.8287078 0.2493943
vn 0.5010448 -0.8287078 0.2493943
vn 0.5010448 -0.8287078 -0.2493943
vn -0.5010448 -0.8287078 -0.2493943
vn -0.5010448 0.8287078 -0.2493943
vn 0.5010448 0.8287078 -0.2493943
vn 0.5010448 0.8287078 0.2493943
vn -0.5010448 0.8287078 0.2493943
vn -0.4939331 -0.2221601 0.8406396
vn -0.4939331 0.2221601 0.8406396
vn 0.4939331 0.2221601 0.8406396
vn 0.4939331 -0.2221601 0.8406396
vn 0.9566711 -0.195215 0.2160355
vn 0.9566712 0.195215 0.2160355
vn 0.9566712 0.195215 -0.2160355
vn 0.9566711 -0.195215 -0.2160355
vn 0.4939331 -0.2221601 -0.8406396
vn 0.4939331 0.2221601 -0.8406396
vn -0.4939331 0.2221601 -0.8406396
vn -0.4939331 -0.2221601 -0.8406396
vn -0.9566711 -0.195215 -0.2160355
vn -0.9566712 0.195215 -0.2160355
vn -0.9566712 0.195215 0.2160355
vn -0.9566711 -0.195215 0.2160355
vt 0.1922344 0.1679167
vt 0.3090155 0.1679167
vt 0.02681787 0.1679167
vt 0.1435989 0.1679167
vt 0.1459108 0.224875
vt 0.02450605 0.224875
vt 0.3113273 0.224875
vt 0.1899226 0.224875
vt 0.1922344 0.1679167
vt 0.1899226 0.224875
vt 0.3113273 0.224875
vt 0.3090155 0.1679167
vt 0.3090155 0.1679167
vt 0.3113273 0.224875
vt 0.02450605 0.224875
vt 0.02681787 0.1679167
vt 0.02681787 0.1679167
vt 0.02450605 0.224875
vt 0.1459108 0.224875
vt 0.1435989 0.1679167
vt 0.1435989 0.1679167
vt 0.1459108 0.224875
vt 0.1899226 0.224875
vt 0.1922344 0.1679167
vt 0.5255678 0.1679167
vt 0.6423488 0.1679167
vt 0.3601512 0.1679167
vt 0.4769323 0.1679167
vt 0.4769323 0.1890891
vt 0.3601512 0.1890891
vt 0.6423488 0.1890891
vt 0.5255678 0.1890891
vt 0.5305555 0.1699412
vt 0.5305555 0.1860296
vt 0.637361 0.1860296
vt 0.637361 0.1699412
vt 0.6467134 0.1696889
vt 0.6467134 0.1837943
vt 0.3557866 0.1837943
vt 0.3557866 0.1696889
vt 0.365139 0.1699412
vt 0.365139 0.1860296
vt 0.4719445 0.1860296
vt 0.4719445 0.1699412
vt 0.4812969 0.1696889
vt 0.4812968 0.1837943
vt 0.5212032 0.1837943
vt 0.5212032 0.1696889
vt 0.5255678 0.1890891
vt 0.6423488 0.1890891
vt 0.637361 0.1860296
vt 0.5305555 0.1860296
vt 0.3601512 0.1890891
vt 0.4769323 0.1890891
vt 0.4719445 0.1860296
vt 0.365139 0.1860296
vt 0.6423488 0.1890891
vt 0.3601512 0.1890891
vt 0.3557866 0.1837943
vt 0.6467134 0.1837943
vt 0.5212032 0.1837943
vt 0.4812968 0.1837943
vt 0.4769323 0.1890891
vt 0.5255678 0.1890891
vt 0.5305555 0.1699412
vt 0.637361 0.1699412
vt 0.6423488 0.1679167
vt 0.5255678 0.1679167
vt 0.6467134 0.1696889
vt 0.3557866 0.1696889
vt 0.3601512 0.1679167
vt 0.6423488 0.1679167
vt 0.365139 0.1699412
vt 0.4719445 0.1699412
vt 0.4769323 0.1679167
vt 0.3601512 0.1679167
vt 0.4812969 0.1696889
vt 0.5212032 0.1696889
vt 0.5255678 0.1679167
vt 0.4769323 0.1679167
vt 0.6467134 0.1837943
vt 0.6467134 0.1696889
vt 0.637361 0.1699412
vt 0.637361 0.1860296
vt 0.365139 0.1860296
vt 0.365139 0.1699412
vt 0.3557866 0.1696889
vt 0.3557866 0.1837943
vt 0.4812968 0.1837943
vt 0.4812969 0.1696889
vt 0.4719445 0.1699412
vt 0.4719445 0.1860296
vt 0.5212032 0.1696889
vt 0.5212032 0.1837943
vt 0.5305555 0.1860296
vt 0.5305555 0.1699412
vt 0.5212032 0.1696889
vt 0.5305555 0.1699412
vt 0.5255678 0.1679167
vt 0.6423488 0.1679167
vt 0.637361 0.1699412
vt 0.6467134 0.1696889
vt 0.3601512 0.1679167
vt 0.3557866 0.1696889
vt 0.365139 0.1699412
vt 0.4769323 0.1679167
vt 0.4719445 0.1699412
vt 0.4812969 0.1696889
vt 0.5255678 0.1890891
vt 0.5305555 0.1860296
vt 0.5212032 0.1837943
vt 0.6467134 0.1837943
vt 0.637361 0.1860296
vt 0.6423488 0.1890891
vt 0.365139 0.1860296
vt 0.3557866 0.1837943
vt 0.3601512 0.1890891
vt 0.4812968 0.1837943
vt 0.4719445 0.1860296
vt 0.4769323 0.1890891
vt 0.8589011 0.1679167
vt 0.9756821 0.1679167
vt 0.6934845 0.1679167
vt 0.8102656 0.1679167
vt 0.8102656 0.2716683
vt 0.6934845 0.2716683
vt 0.9756821 0.2716683
vt 0.8589011 0.2716683
vt 0.8589011 0.1679167
vt 0.8589011 0.2716683
vt 0.9756821 0.2716683
vt 0.9756821 0.1679167
vt 0.9756821 0.1679167
vt 0.9756821 0.2716683
vt 0.6934845 0.2716683
vt 0.6934845 0.1679167
vt 0.6934845 0.1679167
vt 0.6934845 0.2716683
vt 0.8102656 0.2716683
vt 0.8102656 0.1679167
vt 0.8102656 0.1679167
vt 0.8102656 0.2716683
vt 0.8589011 0.2716683
vt 0.8589011 0.1679167
f 4/4/4 2/2/2 1/1/1
f 4/4/4 3/3/3 2/2/2
f 8/8/8 6/6/6 5/5/5
f 8/8/8 7/7/7 6/6/6
f 12/12/12 10/10/10 9/9/9
f 12/12/12 11/11/11 10/10/10
f 16/16/16 14/14/14 13/13/13
f 16/16/16 15/15/15 14/14/14
f 20/20/20 18/18/18 17/17/17
f 20/20/20 19/19/19 18/18/18
f 24/24/24 22/22/22 21/21/21
f 24/24/24 23/23/23 22/22/22
f 28/28/28 26/26/26 25/25/25
f 28/28/28 27/27/27 26/26/26
f 32/32/32 30/30/30 29/29/29
f 32/32/32 31/31/31 30/30/30
f 36/36/36 34/34/34 33/33/33
f 36/36/36 35/35/35 34/34/34
f 40/40/40 38/38/38 37/37/37
f 40/40/40 39/39/39 38/38/38
f 44/44/44 42/42/42 41/41/41
f 44/44/44 43/43/43 42/42/42
f 48/48/48 46/46/46 45/45/45
f 48/48/48 47/47/47 46/46/46
f 52/52/52 50/50/50 49/49/49
f 52/52/52 51/51/51 50/50/50
f 56/56/56 54/54/54 53/53/53
f 56/56/56 55/55/55 54/54/54
f 60/60/60 58/58/58 57/57/57
f 60/60/60 59/59/59 58/58/58
f 64/64/64 62/62/62 61/61/61
f 64/64/64 63/63/63 62/62/62
f 68/68/68 66/66/66 65/65/65
f 68/68/68 67/67/67 66/66/66
f 72/72/72 70/70/70 69/69/69
f 72/72/72 71/71/71 70/70/70
f 76/76/76 74/74/74 73/73/73
f 76/76/76 75/75/75 74/74/74
f 80/80/80 78/78/78 77/77/77
f 80/80/80 79/79/79 78/78/78
f 84/84/84 82/82/82 81/81/81
f 84/84/84 83/83/83 82/82/82
f 88/88/88 86/86/86 85/85/85
f 88/88/88 87/87/87 86/86/86
f 92/92/92 90/90/90 89/89/89
f 92/92/92 91/91/91 90/90/90
f 96/96/96 94/94/94 93/93/93
f 96/96/96 95/95/95 94/94/94
f 97/97/97 99/99/99 98/98/98
f 100/100/100 102/102/102 101/101/101
f 103/103/103 105/105/105 104/104/104
f 106/106/106 108/108/108 107/107/107
f 109/109/109 111/111/111 110/110/110
f 112/112/112 114/114/114 113/113/113
f 115/115/115 117/117/117 116/116/116
f 118/118/118 120/120/120 119/119/119
f 124/124/124 122/122/122 121/121/121
f 124/124/124 123/123/123 122/122/122
f 128/128/128 126/126/126 125/125/125
f 128/128/128 127/127/127 126/126/126
f 132/132/132 130/130/130 129/129/129
f 132/132/132 131/131/131 130/130/130
f 136/136/136 134/134/134 133/133/133
f 136/136/136 135/135/135 134/134/134
f 140/140/140 138/138/138 137/137/137
f 140/140/140 139/139/139 138/138/138
f 144/144/144 142/142/142 141/141/141
f 144/144/144 143/143/143 142/142/142
