v -0.25 0.21 0.07499999
v 0.25 0.21 0.07499999
v 0.25 0.21 -0.07499999
v -0.25 0.21 -0.07499999
v -0.3 1.035 -0.07499999
v 0.3 1.035 -0.07499999
v 0.3 1.035 0.07499999
v -0.3 1.035 0.07499999
v -0.25 0.21 0.07499999
v -0.3 1.035 0.07499999
v 0.3 1.035 0.07499999
v 0.25 0.21 0.07499999
v 0.25 0.21 0.07499999
v 0.3 1.035 0.07499999
v 0.3 1.035 -0.07499999
v 0.25 0.21 -0.07499999
v 0.25 0.21 -0.07499999
v 0.3 1.035 -0.07499999
v -0.3 1.035 -0.07499999
v -0.25 0.21 -0.07499999
v -0.25 0.21 -0.07499999
v -0.3 1.035 -0.07499999
v -0.3 1.035 0.07499999
v -0.25 0.21 0.07499999
v -0.425 0.055 0.15625
v 0.4250001 0.055 0.15625
v 0.4250001 0.055 -0.15625
v -0.425 0.055 -0.15625
v -0.425 0.21 -0.15625
v 0.4250001 0.21 -0.15625
v 0.4250001 0.21 0.15625
v -0.425 0.21 0.15625
v -0.425 0.055 0.15625
v -0.425 0.21 0.15625
v 0.4250001 0.21 0.15625
v 0.4250001 0.055 0.15625
v 0.4250001 0.055 0.15625
v 0.4250001 0.21 0.15625
v 0.4250001 0.21 -0.15625
v 0.4250001 0.055 -0.15625
v 0.4250001 0.055 -0.15625
v 0.4250001 0.21 -0.15625
v -0.425 0.21 -0.15625
v -0.425 0.055 -0.15625
v -0.425 0.055 -0.15625
v -0.425 0.21 -0.15625
v -0.425 0.21 0.15625
v -0.425 0.055 0.15625
v -0.5625 0 0.328125
v 0.5625 0 0.328125
v 0.5625 0 -0.328125
v -0.5625 0 -0.328125
v -0.5625 0.055 -0.328125
v 0.5625 0.055 -0.328125
v 0.5625 0.055 0.328125
v -0.5625 0.055 0.328125
v -0.5625 0 0.328125
v -0.5625 0.055 0.328125
v 0.5625 0.055 0.328125
v 0.5625 0 0.328125
v 0.5625 0 0.328125
v 0.5625 0.055 0.328125
v 0.5625 0.055 -0.328125
v 0.5625 0 -0.328125
v 0.5625 0 -0.328125
v 0.5625 0.055 -0.328125
v -0.5625 0.055 -0.328125
v -0.5625 0 -0.328125
v -0.5625 0 -0.328125
v -0.5625 0.055 -0.328125
v -0.5625 0.055 0.328125
v -0.5625 0 0.328125
v -0.3 1.035 -0.07499999
v -0.2959084 1.053928 -0.07499999
v -0.2837452 1.07234 -0.07499999
v -0.2638421 1.089734 -0.07499999
v -0.2367421 1.105634 -0.07499999
v -0.2031844 1.119608 -0.07499999
v -0.1640844 1.131274 -0.07499999
v -0.1205086 1.140314 -0.07499999
v -0.07364565 1.146481 -0.07499999
v -0.02477378 1.149607 -0.07499999
v 0.02477384 1.149607 -0.07499999
v 0.07364571 1.146481 -0.07499999
v 0.1205087 1.140314 -0.07499999
v 0.1640845 1.131274 -0.07499999
v 0.2031846 1.119608 -0.07499999
v 0.2367423 1.105634 -0.07499999
v 0.2638422 1.089734 -0.07499999
v 0.2837453 1.07234 -0.07499999
v 0.2959085 1.053928 -0.07499999
v 0.3 1.035 -0.07499999
v -0.3 1.035 -0.07499999
v -0.3 1.035 0.07499999
v -0.2959084 1.053928 0.07499999
v -0.2837451 1.07234 0.07499999
v -0.2638421 1.089734 0.07499999
v -0.2367421 1.105634 0.07499999
v -0.2031844 1.119608 0.07499999
v -0.1640844 1.131274 0.07499999
v -0.1205086 1.140314 0.07499999
v -0.07364562 1.146481 0.07499999
v -0.02477378 1.149607 0.07499999
v 0.02477384 1.149607 0.07499999
v 0.07364571 1.146481 0.07499999
v 0.1205087 1.140314 0.07499999
v 0.1640845 1.131274 0.07499999
v 0.2031846 1.119608 0.07499999
v 0.2367423 1.105634 0.07499999
v 0.2638422 1.089734 0.07499999
v 0.2837453 1.07234 0.07499999
v 0.2959085 1.053928 0.07499999
v 0.3000001 1.035 0.07499999
v -0.3 1.035 0.07499999
v -0.3 1.035 -0.07499999
v -0.2959084 1.053928 -0.07499999
v -0.2837452 1.07234 -0.07499999
v -0.2638421 1.089734 -0.07499999
v -0.2367421 1.105634 -0.07499999
v -0.2031844 1.119608 -0.07499999
v -0.1640844 1.131274 -0.07499999
v -0.1205086 1.140314 -0.07499999
v -0.07364565 1.146481 -0.07499999
v -0.02477378 1.149607 -0.07499999
v 0.02477384 1.149607 -0.07499999
v 0.07364571 1.146481 -0.07499999
v 0.1205087 1.140314 -0.07499999
v 0.1640845 1.131274 -0.07499999
v 0.2031846 1.119608 -0.07499999
v 0.2367423 1.105634 -0.07499999
v 0.2638422 1.089734 -0.07499999
v 0.2837453 1.07234 -0.07499999
v 0.2959085 1.053928 -0.07499999
v 0.3 1.035 -0.07499999
v -0.3 1.035 0.07499999
v -0.2959084 1.053928 0.07499999
v -0.2837451 1.07234 0.07499999
v -0.2638421 1.089734 0.07499999
v -0.2367421 1.105634 0.07499999
v -0.2031844 1.119608 0.07499999
v -0.1640844 1.131274 0.07499999
v -0.1205086 1.140314 0.07499999
v -0.07364562 1.146481 0.07499999
v -0.02477378 1.149607 0.07499999
v 0.02477384 1.149607 0.07499999
v 0.07364571 1.146481 0.07499999
v 0.1205087 1.140314 0.07499999
v 0.1640845 1.131274 0.07499999
v 0.2031846 1.119608 0.07499999
v 0.2367423 1.105634 0.07499999
v 0.2638422 1.089734 0.07499999
v 0.2837453 1.07234 0.07499999
v 0.2959085 1.053928 0.07499999
v 0.3000001 1.035 0.07499999
vn -0.2666103 -0.96048 0.07998308
vn 0.2666103 -0.96048 0.07998308
vn 0.2666103 -0.96048 -0.07998308
vn -0.2666103 -0.96048 -0.07998308
vn -0.3066845 0.9487182 -0.07667113
vn 0.3066845 0.9487182 -0.07667113
vn 0.3066845 0.9487182 0.07667113
vn -0.3066845 0.9487182 0.07667113
vn -0.3371663 -0.5563243 0.7594881
vn -0.3844595 0.5286318 0.7567954
vn 0.3844595 0.5286318 0.7567954
vn 0.3371663 -0.5563243 0.7594881
vn 0.8544101 -0.5122776 0.08691903
vn 0.9025525 0.422485 0.0830982
vn 0.9025525 0.422485 -0.0830982
vn 0.8544101 -0.5122776 -0.08691903
vn 0.3371663 -0.5563243 -0.7594881
vn 0.3844595 0.5286318 -0.7567954
vn -0.3844595 0.5286318 -0.7567954
vn -0.3371663 -0.5563243 -0.7594881
vn -0.8544101 -0.5122776 -0.08691903
vn -0.9025525 0.422485 -0.0830982
vn -0.9025525 0.422485 0.0830982
vn -0.8544101 -0.5122776 0.08691903
vn -0.6051105 -0.7644277 0.2224671
vn 0.6051105 -0.7644277 0.2224671
vn 0.6051105 -0.7644277 -0.2224671
vn -0.6051105 -0.7644277 -0.2224671
vn -0.6051105 0.7644277 -0.2224671
vn 0.6051105 0.7644277 -0.2224671
vn 0.6051105 0.7644277 0.2224671
vn -0.6051105 0.7644277 0.2224671
vn -0.5650856 -0.103045 0.818572
vn -0.5650856 0.103045 0.818572
vn 0.5650856 0.103045 0.818572
vn 0.5650856 -0.103045 0.818572
vn 0.9811031 -0.08597443 0.1733355
vn 0.9811031 0.08597442 0.1733355
vn 0.9811031 0.08597442 -0.1733355
vn 0.9811031 -0.08597443 -0.1733355
vn 0.5650856 -0.103045 -0.818572
vn 0.5650856 0.103045 -0.818572
vn -0.5650856 0.103045 -0.818572
vn -0.5650856 -0.103045 -0.818572
vn -0.9811031 -0.08597443 -0.1733355
vn -0.9811031 0.08597442 -0.1733355
vn -0.9811031 0.08597442 0.1733355
vn -0.9811031 -0.08597443 0.1733355
vn -0.5977601 -0.7218696 0.3486934
vn 0.5977601 -0.7218696 0.3486934
vn 0.5977601 -0.7218696 -0.3486934
vn -0.5977601 -0.7218696 -0.3486934
vn -0.5977601 0.7218696 -0.3486934
vn 0.5977601 0.7218696 -0.3486934
vn 0.5977601 0.7218696 0.3486934
vn -0.5977601 0.7218696 0.3486934
vn -0.4976915 -0.02433158 0.8670128
vn -0.4976915 0.02433158 0.8670128
vn 0.4976915 0.02433158 0.8670128
vn 0.4976915 -0.02433158 0.8670128
vn 0.9651451 -0.02185764 0.2608014
vn 0.9651451 0.02185764 0.2608014
vn 0.9651451 0.02185764 -0.2608014
vn 0.9651451 -0.02185764 -0.2608014
vn 0.4976915 -0.02433158 -0.8670128
vn 0.4976915 0.02433158 -0.8670128
vn -0.4976915 0.02433158 -0.8670128
vn -0.4976915 -0.02433158 -0.8670128
vn -0.9651451 -0.02185764 -0.2608014
vn -0.9651451 0.02185764 -0.2608014
vn -0.9651451 0.02185764 0.2608014
vn -0.9651451 -0.02185764 0.2608014
vn -1 0 1.986821E-07
vn -0.9168919 0.3991356 1.8217E-07
vn -0.744934 0.6671381 1.480051E-07
vn -0.5780191 0.8160232 1.148421E-07
vn -0.4418279 0.8970999 4.389165E-08
vn -0.3327712 0.9430076 3.305784E-08
vn -0.24294 0.9700414 2.413392E-08
vn -0.1658183 0.9861563 1.647257E-08
vn -0.09661938 0.9953214 9.598272E-09
vn -0.03174747 0.9994959 3.942285E-09
vn 0.03174747 0.9994959 -3.942284E-09
vn 0.09661936 0.9953214 -9.598272E-09
vn 0.1658183 0.9861563 -1.647257E-08
vn 0.2429412 0.970041 -2.413404E-08
vn 0.3327724 0.9430072 -3.305797E-08
vn 0.441828 0.8970998 -4.389167E-08
vn 0.5780206 0.8160221 -1.148424E-07
vn 0.7449344 0.6671377 -1.480052E-07
vn 0.916892 0.3991355 -1.821701E-07
vn 1 -3.973643E-07 -1.986821E-07
vn -1 0 1.986821E-07
vn -1 0 1.986821E-07
vn -0.9168919 0.3991356 1.8217E-07
vn -0.744934 0.6671381 1.480051E-07
vn -0.5780192 0.8160232 1.148421E-07
vn -0.441828 0.8970999 4.389166E-08
vn -0.3327712 0.9430076 3.305784E-08
vn -0.24294 0.9700414 2.413392E-08
vn -0.1658183 0.9861563 1.647257E-08
vn -0.09661938 0.9953214 9.598272E-09
vn -0.03174747 0.9994959 3.942284E-09
vn 0.03174747 0.9994959 -3.942284E-09
vn 0.09661938 0.9953214 -9.598272E-09
vn 0.1658183 0.9861563 -1.647257E-08
vn 0.2429412 0.970041 -2.413404E-08
vn 0.3327724 0.9430072 -3.305797E-08
vn 0.441828 0.8970998 -4.389166E-08
vn 0.5780206 0.8160222 -1.148424E-07
vn 0.7449344 0.6671377 -1.480052E-07
vn 0.916892 0.3991355 -1.821701E-07
vn 1 -3.973643E-07 -1.986821E-07
vn -1 0 1.986821E-07
vn -1.192093E-07 0 -1
vn -1.192093E-07 0 -1
vn -1.192093E-07 0 -1
vn -1.192093E-07 0 -1
vn -1.192093E-07 0 -1
vn -1.192093E-07 0 -1
vn -1.192093E-07 0 -1
vn -1.192093E-07 0 -1
vn -1.192093E-07 0 -1
vn -1.192093E-07 0 -1
vn -1.192093E-07 0 -1
vn -1.192093E-07 0 -1
vn -1.192093E-07 0 -1
vn -1.192093E-07 0 -1
vn -1.192093E-07 0 -1
vn -1.192093E-07 0 -1
vn -1.192093E-07 0 -1
vn -1.192093E-07 0 -1
vn -1.192093E-07 0 -1
vn -1.192093E-07 0 -1
vn 1.192093E-07 0 1
vn 1.192093E-07 0 1
vn 1.192093E-07 0 1
vn 1.192093E-07 0 1
vn 1.192093E-07 0 1
vn 1.192093E-07 0 1
vn 1.192093E-07 0 1
vn 1.192093E-07 0 1
vn 1.192093E-07 0 1
vn 1.192093E-07 0 1
vn 1.192093E-07 0 1
vn 1.192093E-07 0 1
vn 1.192093E-07 0 1
vn 1.192093E-07 0 1
vn 1.192093E-07 0 1
vn 1.192093E-07 0 1
vn 1.192093E-07 0 1
vn 1.192093E-07 0 1
vn 1.192093E-07 0 1
vn 1.192093E-07 0 1
vt 0.1832628 0.1679167
vt 0.317987 0.1679167
vt 0.01784629 0.1679167
vt 0.1525705 0.1679167
vt 0.1550177 0.3228099
vt 0.01539906 0.3228099
vt 0.3204343 0.3228099
vt 0.1808156 0.3228099
vt 0.1832628 0.1679167
vt 0.1808156 0.3228099
vt 0.3204343 0.3228099
vt 0.317987 0.1679167
vt 0.317987 0.1679167
vt 0.3204343 0.3228099
vt 0.01539906 0.3228099
vt 0.01784629 0.1679167
vt 0.01784629 0.1679167
vt 0.01539906 0.3228099
vt 0.1550177 0.3228099
vt 0.1525705 0.1679167
vt 0.1525705 0.1679167
vt 0.1550177 0.3228099
vt 0.1808156 0.3228099
vt 0.1832628 0.1679167
vt 0.1864669 0.50125
vt 0.3147829 0.50125
vt 0.0210504 0.50125
vt 0.1493664 0.50125
vt 0.1493664 0.5548214
vt 0.02105039 0.5548214
vt 0.3147829 0.5548214
vt 0.1864669 0.5548214
vt 0.1864669 0.50125
vt 0.1864669 0.5548214
vt 0.3147829 0.5548214
vt 0.3147829 0.50125
vt 0.3147829 0.50125
vt 0.3147829 0.5548214
vt 0.02105039 0.5548214
vt 0.0210504 0.50125
vt 0.0210504 0.50125
vt 0.02105039 0.5548214
vt 0.1493664 0.5548214
vt 0.1493664 0.50125
vt 0.1493664 0.50125
vt 0.1493664 0.5548214
vt 0.1864669 0.5548214
vt 0.1864669 0.50125
vt 0.529055 0.50125
vt 0.6388615 0.50125
vt 0.3636385 0.50125
vt 0.473445 0.50125
vt 0.473445 0.5151713
vt 0.3636385 0.5151713
vt 0.6388615 0.5151713
vt 0.529055 0.5151713
vt 0.529055 0.50125
vt 0.529055 0.5151713
vt 0.6388615 0.5151713
vt 0.6388615 0.50125
vt 0.6388615 0.50125
vt 0.6388615 0.5151713
vt 0.3636385 0.5151713
vt 0.3636385 0.50125
vt 0.3636385 0.50125
vt 0.3636385 0.5151713
vt 0.473445 0.5151713
vt 0.473445 0.50125
vt 0.473445 0.50125
vt 0.473445 0.5151713
vt 0.529055 0.5151713
vt 0.529055 0.50125
vt 0.6691667 0.50125
vt 0.6857083 0.50125
vt 0.70225 0.50125
vt 0.7187917 0.50125
vt 0.7353333 0.50125
vt 0.751875 0.50125
vt 0.7684167 0.50125
vt 0.7849584 0.50125
vt 0.8015 0.50125
vt 0.8180417 0.50125
vt 0.8345833 0.50125
vt 0.851125 0.50125
vt 0.8676667 0.50125
vt 0.8842083 0.50125
vt 0.90075 0.50125
vt 0.9172916 0.50125
vt 0.9338334 0.50125
vt 0.950375 0.50125
vt 0.9669167 0.50125
vt 0.9834583 0.50125
vt 1 0.50125
vt 0.6691667 0.6666667
vt 0.6857083 0.6666667
vt 0.70225 0.6666667
vt 0.7187917 0.6666667
vt 0.7353333 0.6666667
vt 0.751875 0.6666667
vt 0.7684167 0.6666667
vt 0.7849584 0.6666667
vt 0.8015 0.6666667
vt 0.8180417 0.6666667
vt 0.8345833 0.6666667
vt 0.851125 0.6666667
vt 0.8676667 0.6666667
vt 0.8842083 0.6666667
vt 0.90075 0.6666667
vt 0.9172916 0.6666667
vt 0.9338334 0.6666667
vt 0.950375 0.6666667
vt 0.9669167 0.6666667
vt 0.9834583 0.6666667
vt 1 0.6666667
vt 0.8345834 0.4185417
vt 0.8334553 0.4237601
vt 0.830102 0.4288362
vt 0.8246148 0.4336315
vt 0.8171436 0.4380152
vt 0.8078918 0.4418677
vt 0.7971122 0.4450839
vt 0.7850986 0.4475761
vt 0.7721787 0.4492764
vt 0.758705 0.4501382
vt 0.7450451 0.4501382
vt 0.7315714 0.4492764
vt 0.7186515 0.4475761
vt 0.7066379 0.4450839
vt 0.6958582 0.4418677
vt 0.6866065 0.4380152
vt 0.6791352 0.4336315
vt 0.6736481 0.4288362
vt 0.6702948 0.4237601
vt 0.6691667 0.4185416
vt 1 0.3675382
vt 0.998872 0.3727567
vt 0.9955187 0.3778328
vt 0.9900315 0.3826281
vt 0.9825603 0.3870117
vt 0.9733086 0.3908643
vt 0.9625289 0.3940805
vt 0.9505153 0.3965727
vt 0.9375954 0.3982729
vt 0.9241217 0.3991348
vt 0.9104618 0.3991348
vt 0.8969881 0.3982729
vt 0.8840682 0.3965727
vt 0.8720546 0.3940805
vt 0.8612749 0.3908642
vt 0.8520232 0.3870117
vt 0.8445519 0.3826281
vt 0.8390648 0.3778327
vt 0.8357115 0.3727566
vt 0.8345834 0.3675382
f 4/4/4 2/2/2 1/1/1
f 4/4/4 3/3/3 2/2/2
f 8/8/8 6/6/6 5/5/5
f 8/8/8 7/7/7 6/6/6
f 12/12/12 10/10/10 9/9/9
f 12/12/12 11/11/11 10/10/10
f 16/16/16 14/14/14 13/13/13
f 16/16/16 15/15/15 14/14/14
f 20/20/20 18/18/18 17/17/17
f 20/20/20 19/19/19 18/18/18
f 24/24/24 22/22/22 21/21/21
f 24/24/24 23/23/23 22/22/22
f 28/28/28 26/26/26 25/25/25
f 28/28/28 27/27/27 26/26/26
f 32/32/32 30/30/30 29/29/29
f 32/32/32 31/31/31 30/30/30
f 36/36/36 34/34/34 33/33/33
f 36/36/36 35/35/35 34/34/34
f 40/40/40 38/38/38 37/37/37
f 40/40/40 39/39/39 38/38/38
f 44/44/44 42/42/42 41/41/41
f 44/44/44 43/43/43 42/42/42
f 48/48/48 46/46/46 45/45/45
f 48/48/48 47/47/47 46/46/46
f 52/52/52 50/50/50 49/49/49
f 52/52/52 51/51/51 50/50/50
f 56/56/56 54/54/54 53/53/53
f 56/56/56 55/55/55 54/54/54
f 60/60/60 58/58/58 57/57/57
f 60/60/60 59/59/59 58/58/58
f 64/64/64 62/62/62 61/61/61
f 64/64/64 63/63/63 62/62/62
f 68/68/68 66/66/66 65/65/65
f 68/68/68 67/67/67 66/66/66
f 72/72/72 70/70/70 69/69/69
f 72/72/72 71/71/71 70/70/70
f 94/94/94 74/74/74 73/73/73
f 94/94/94 95/95/95 74/74/74
f 95/95/95 75/75/75 74/74/74
f 95/95/95 96/96/96 75/75/75
f 96/96/96 76/76/76 75/75/75
f 96/96/96 97/97/97 76/76/76
f 97/97/97 77/77/77 76/76/76
f 97/97/97 98/98/98 77/77/77
f 98/98/98 78/78/78 77/77/77
f 98/98/98 99/99/99 78/78/78
f 99/99/99 79/79/79 78/78/78
f 99/99/99 100/100/100 79/79/79
f 100/100/100 80/80/80 79/79/79
f 100/100/100 101/101/101 80/80/80
f 101/101/101 81/81/81 80/80/80
f 101/101/101 102/102/102 81/81/81
f 102/102/102 82/82/82 81/81/81
f 102/102/102 103/103/103 82/82/82
f 103/103/103 83/83/83 82/82/82
f 103/103/103 104/104/104 83/83/83
f 104/104/104 84/84/84 83/83/83
f 104/104/104 105/105/105 84/84/84
f 105/105/105 85/85/85 84/84/84
f 105/105/105 106/106/106 85/85/85
f 106/106/106 86/86/86 85/85/85
f 106/106/106 107/107/107 86/86/86
f 107/107/107 87/87/87 86/86/86
f 107/107/107 108/108/108 87/87/87
f 108/108/108 88/88/88 87/87/87
f 108/108/108 109/109/109 88/88/88
f 109/109/109 89/89/89 88/88/88
f 109/109/109 110/110/110 89/89/89
f 110/110/110 90/90/90 89/89/89
f 110/110/110 111/111/111 90/90/90
f 111/111/111 91/91/91 90/90/90
f 111/111/111 112/112/112 91/91/91
f 112/112/112 92/92/92 91/91/91
f 112/112/112 113/113/113 92/92/92
f 113/113/113 93/93/93 92/92/92
f 113/113/113 114/114/114 93/93/93
f 116/116/116 117/117/117 115/115/115
f 117/117/117 118/118/118 115/115/115
f 118/118/118 119/119/119 115/115/115
f 119/119/119 120/120/120 115/115/115
f 120/120/120 121/121/121 115/115/115
f 121/121/121 122/122/122 115/115/115
f 122/122/122 123/123/123 115/115/115
f 123/123/123 124/124/124 115/115/115
f 124/124/124 125/125/125 115/115/115
f 125/125/125 126/126/126 115/115/115
f 126/126/126 127/127/127 115/115/115
f 127/127/127 128/128/128 115/115/115
f 128/128/128 129/129/129 115/115/115
f 129/129/129 130/130/130 115/115/115
f 130/130/130 131/131/131 115/115/115
f 131/131/131 132/132/132 115/115/115
f 132/132/132 133/133/133 115/115/115
f 133/133/133 134/134/134 115/115/115
f 137/137/137 136/136/136 135/135/135
f 138/138/138 137/137/137 135/135/135
f 139/139/139 138/138/138 135/135/135
f 140/140/140 139/139/139 135/135/135
f 141/141/141 140/140/140 135/135/135
f 142/142/142 141/141/141 135/135/135
f 143/143/143 142/142/142 135/135/135
f 144/144/144 143/143/143 135/135/135
f 145/145/145 144/144/144 135/135/135
f 146/146/146 145/145/145 135/135/135
f 147/147/147 146/146/146 135/135/135
f 148/148/148 147/147/147 135/135/135
f 149/149/149 148/148/148 135/135/135
f 150/150/150 149/149/149 135/135/135
f 151/151/151 150/150/150 135/135/135
f 152/152/152 151/151/151 135/135/135
f 153/153/153 152/152/152 135/135/135
f 154/154/154 153/153/153 135/135/135
