v -0.54 0 0.29
v 0.54 0 0.29
v 0.54 0 -0.29
v -0.54 0 -0.29
v -0.54 0.045 -0.29
v 0.54 0.045 -0.29
v 0.54 0.045 0.29
v -0.54 0.045 0.29
v -0.54 0 0.29
v -0.54 0.045 0.29
v 0.54 0.045 0.29
v 0.54 0 0.29
v 0.54 0 0.29
v 0.54 0.045 0.29
v 0.54 0.045 -0.29
v 0.54 0 -0.29
v 0.54 0 -0.29
v 0.54 0.045 -0.29
v -0.54 0.045 -0.29
v -0.54 0 -0.29
v -0.54 0 -0.29
v -0.54 0.045 -0.29
v -0.54 0.045 0.29
v -0.54 0 0.29
v -0.35375 -0.145 0.385
v -0.20875 -0.145 0.385
v -0.20875 -0.145 -0.385
v -0.35375 -0.145 -0.385
v -0.35375 0 -0.385
v -0.20875 0 -0.385
v -0.20875 0 0.385
v -0.35375 0 0.385
v -0.35375 -0.145 0.385
v -0.35375 0 0.385
v -0.20875 0 0.385
v -0.20875 -0.145 0.385
v -0.20875 -0.145 0.385
v -0.20875 0 0.385
v -0.20875 0 -0.385
v -0.20875 -0.145 -0.385
v -0.20875 -0.145 -0.385
v -0.20875 0 -0.385
v -0.35375 0 -0.385
v -0.35375 -0.145 -0.385
v -0.35375 -0.145 -0.385
v -0.35375 0 -0.385
v -0.35375 0 0.385
v -0.35375 -0.145 0.385
v 0.20875 -0.145 0.385
v 0.35375 -0.145 0.385
v 0.35375 -0.145 -0.385
v 0.20875 -0.145 -0.385
v 0.20875 0 -0.385
v 0.35375 0 -0.385
v 0.35375 0 0.385
v 0.20875 0 0.385
v 0.20875 -0.145 0.385
v 0.20875 0 0.385
v 0.35375 0 0.385
v 0.35375 -0.145 0.385
v 0.35375 -0.145 0.385
v 0.35375 0 0.385
v 0.35375 0 -0.385
v 0.35375 -0.145 -0.385
v 0.35375 -0.145 -0.385
v 0.35375 0 -0.385
v 0.20875 0 -0.385
v 0.20875 -0.145 -0.385
v 0.20875 -0.145 -0.385
v 0.20875 0 -0.385
v 0.20875 0 0.385
v 0.20875 -0.145 0.385
v -0.540022 4.470348E-08 -0.290022
v -0.5400237 7.450581E-08 0.2900237
v 0.5400236 7.450581E-08 0.2900237
v 0.5400218 4.470348E-08 -0.290022
v -0.540022 4.470348E-08 -0.290022
v -0.585 2.980232E-08 -0.335
v -0.585 7.450581E-08 0.3349999
v 0.5849999 7.450581E-08 0.3349999
v 0.5849999 2.980232E-08 -0.335
v -0.585 2.980232E-08 -0.335
v -0.540022 0.4 -0.290022
v -0.5400237 0.4000001 0.2900236
v 0.5400236 0.4000001 0.2900236
v 0.5400218 0.4 -0.290022
v -0.540022 0.4 -0.290022
v -0.585 0.4 -0.335
v -0.585 0.4000001 0.3349999
v 0.5849999 0.4000001 0.3349999
v 0.5849999 0.4 -0.335
v -0.585 0.4 -0.335
v -0.540022 4.470348E-08 -0.290022
v -0.540022 0.4 -0.290022
v -0.5400237 7.450581E-08 0.2900237
v -0.5400237 0.4000001 0.2900236
v 0.5400236 7.450581E-08 0.2900237
v 0.5400236 0.4000001 0.2900236
v 0.5400218 4.470348E-08 -0.290022
v 0.5400218 0.4 -0.290022
v -0.540022 4.470348E-08 -0.290022
v -0.540022 0.4 -0.290022
v -0.585 2.980232E-08 -0.335
v -0.585 0.4 -0.335
v -0.585 7.450581E-08 0.3349999
v -0.585 0.4000001 0.3349999
v 0.5849999 7.450581E-08 0.3349999
v 0.5849999 0.4000001 0.3349999
v 0.5849999 2.980232E-08 -0.335
v 0.5849999 0.4 -0.335
v -0.585 2.980232E-08 -0.335
v -0.585 0.4 -0.335
vn -0.6114243 -0.7199596 0.3283575
vn 0.6114243 -0.7199596 0.3283575
vn 0.6114243 -0.7199596 -0.3283575
vn -0.6114243 -0.7199596 -0.3283575
vn -0.6114243 0.7199596 -0.3283575
vn 0.6114243 0.7199596 -0.3283575
vn 0.6114243 0.7199596 0.3283575
vn -0.6114243 0.7199596 0.3283575
vn -0.5129708 -0.02137379 0.8581399
vn -0.5129708 0.02137379 0.8581399
vn 0.5129708 0.02137379 0.8581399
vn 0.5129708 -0.02137379 0.8581399
vn 0.9696395 -0.018916 0.2438062
vn 0.9696395 0.018916 0.2438062
vn 0.9696395 0.018916 -0.2438062
vn 0.9696395 -0.018916 -0.2438062
vn 0.5129708 -0.02137379 -0.8581399
vn 0.5129708 0.02137379 -0.8581399
vn -0.5129708 0.02137379 -0.8581399
vn -0.5129708 -0.02137379 -0.8581399
vn -0.9696395 -0.018916 -0.2438062
vn -0.9696395 0.018916 -0.2438062
vn -0.9696395 0.018916 0.2438062
vn -0.9696395 -0.018916 0.2438062
vn -0.1183532 -0.7687553 0.6284965
vn 0.1183532 -0.7687553 0.6284965
vn 0.1183532 -0.7687553 -0.6284965
vn -0.1183532 -0.7687553 -0.6284965
vn -0.1183532 0.7687553 -0.6284965
vn 0.1183532 0.7687553 -0.6284965
vn 0.1183532 0.7687553 0.6284965
vn -0.1183532 0.7687553 0.6284965
vn -0.09176056 -0.09176057 0.9915442
vn -0.09176056 0.09176057 0.9915442
vn 0.09176056 0.09176057 0.9915442
vn 0.09176056 -0.09176057 0.9915442
vn 0.7687553 -0.1183532 0.6284965
vn 0.7687553 0.1183532 0.6284965
vn 0.7687553 0.1183532 -0.6284965
vn 0.7687553 -0.1183532 -0.6284965
vn 0.09176056 -0.09176057 -0.9915442
vn 0.09176056 0.09176057 -0.9915442
vn -0.09176056 0.09176057 -0.9915442
vn -0.09176056 -0.09176057 -0.9915442
vn -0.7687553 -0.1183532 -0.6284965
vn -0.7687553 0.1183532 -0.6284965
vn -0.7687553 0.1183532 0.6284965
vn -0.7687553 -0.1183532 0.6284965
vn -0.1183532 -0.7687553 0.6284965
vn 0.1183532 -0.7687553 0.6284965
vn 0.1183532 -0.7687553 -0.6284965
vn -0.1183532 -0.7687553 -0.6284965
vn -0.1183532 0.7687553 -0.6284965
vn 0.1183532 0.7687553 -0.6284965
vn 0.1183532 0.7687553 0.6284965
vn -0.1183532 0.7687553 0.6284965
vn -0.09176056 -0.09176057 0.9915442
vn -0.09176056 0.09176057 0.9915442
vn 0.09176056 0.09176057 0.9915442
vn 0.09176056 -0.09176057 0.9915442
vn 0.7687553 -0.1183532 0.6284965
vn 0.7687553 0.1183532 0.6284965
vn 0.7687553 0.1183532 -0.6284965
vn 0.7687553 -0.1183532 -0.6284965
vn 0.09176056 -0.09176057 -0.9915442
vn 0.09176056 0.09176057 -0.9915442
vn -0.09176056 0.09176057 -0.9915442
vn -0.09176056 -0.09176057 -0.9915442
vn -0.7687553 -0.1183532 -0.6284965
vn -0.7687553 0.1183532 -0.6284965
vn -0.7687553 0.1183532 0.6284965
vn -0.7687553 -0.1183532 0.6284965
vn 0 -1 5.960465E-08
vn 0 -1 5.960465E-08
vn 0 -1 5.960465E-08
vn 0 -1 5.960465E-08
vn 0 -1 5.960465E-08
vn 0 -1 5.960465E-08
vn 0 -1 5.960465E-08
vn 0 -1 5.960465E-08
vn 0 -1 5.960465E-08
vn 0 -1 5.960465E-08
vn 0 1 -5.960465E-08
vn 0 1 -5.960465E-08
vn 0 1 -5.960465E-08
vn 0 1 -5.960465E-08
vn 0 1 -5.960465E-08
vn 0 1 -5.960465E-08
vn 0 1 -5.960465E-08
vn 0 1 -5.960465E-08
vn 0 1 -5.960465E-08
vn 0 1 -5.960465E-08
vn 0.9995118 5.957555E-08 0.9995118
vn 0.9995118 5.957555E-08 0.9995118
vn 0.9994728 -5.957322E-08 -0.9994728
vn 0.9994728 -5.957322E-08 -0.9994728
vn -0.9994728 -5.957322E-08 -0.9994728
vn -0.9994728 -5.957322E-08 -0.9994728
vn -0.9995119 5.957556E-08 0.9995119
vn -0.9995119 5.957556E-08 0.9995119
vn 0.9995118 5.957555E-08 0.9995118
vn 0.9995118 5.957555E-08 0.9995118
vn -0.9995118 -5.957555E-08 -0.9995118
vn -0.9995118 -5.957555E-08 -0.9995118
vn -0.9994728 5.957322E-08 0.9994728
vn -0.9994728 5.957322E-08 0.9994728
vn 0.9994728 5.957322E-08 0.9994728
vn 0.9994728 5.957322E-08 0.9994728
vn 0.9995119 -5.957556E-08 -0.9995119
vn 0.9995119 -5.957556E-08 -0.9995119
vn -0.9995118 -5.957555E-08 -0.9995118
vn -0.9995118 -5.957555E-08 -0.9995118
vt 0.2902724 0.25125
vt 0.4609774 0.25125
vt 0.04152261 0.25125
vt 0.2122276 0.25125
vt 0.2122276 0.2694633
vt 0.0415226 0.2694633
vt 0.4609774 0.2694633
vt 0.2902724 0.2694633
vt 0.2902724 0.25125
vt 0.2902724 0.2694633
vt 0.4609774 0.2694633
vt 0.4609774 0.25125
vt 0.4609774 0.25125
vt 0.4609774 0.2694633
vt 0.0415226 0.2694633
vt 0.04152261 0.25125
vt 0.04152261 0.25125
vt 0.0415226 0.2694633
vt 0.2122276 0.2694633
vt 0.2122276 0.25125
vt 0.2122276 0.25125
vt 0.2122276 0.2694633
vt 0.2902724 0.2694633
vt 0.2902724 0.25125
vt 0.3608871 0.75125
vt 0.3903627 0.75125
vt 0.1121372 0.75125
vt 0.141613 0.75125
vt 0.141613 0.8375927
vt 0.1121372 0.8375927
vt 0.3903627 0.8375927
vt 0.3608871 0.8375927
vt 0.3608871 0.75125
vt 0.3608871 0.8375927
vt 0.3903627 0.8375927
vt 0.3903627 0.75125
vt 0.3903627 0.75125
vt 0.3903627 0.8375927
vt 0.1121372 0.8375927
vt 0.1121372 0.75125
vt 0.1121372 0.75125
vt 0.1121372 0.8375927
vt 0.141613 0.8375927
vt 0.141613 0.75125
vt 0.141613 0.75125
vt 0.141613 0.8375927
vt 0.3608871 0.8375927
vt 0.3608871 0.75125
vt 0.3608871 0.75125
vt 0.3903627 0.75125
vt 0.1121372 0.75125
vt 0.141613 0.75125
vt 0.141613 0.8375927
vt 0.1121372 0.8375927
vt 0.3903627 0.8375927
vt 0.3608871 0.8375927
vt 0.3608871 0.75125
vt 0.3608871 0.8375927
vt 0.3903627 0.8375927
vt 0.3903627 0.75125
vt 0.3903627 0.75125
vt 0.3903627 0.8375927
vt 0.1121372 0.8375927
vt 0.1121372 0.75125
vt 0.1121372 0.75125
vt 0.1121372 0.8375927
vt 0.141613 0.8375927
vt 0.141613 0.75125
vt 0.141613 0.75125
vt 0.141613 0.8375927
vt 0.3608871 0.8375927
vt 0.3608871 0.75125
vt 0.5025 0.4939165
vt 0.5930774 0.4939165
vt 0.75125 0.4939165
vt 0.8418275 0.4939165
vt 1 0.4939165
vt 0.5025 0.5
vt 0.5930774 0.5
vt 0.75125 0.5
vt 0.8418275 0.5
vt 1 0.5
vt 0.5025 0.4817493
vt 0.5930774 0.4817493
vt 0.75125 0.4817493
vt 0.8418275 0.4817493
vt 1 0.4817493
vt 0.5025 0.4878329
vt 0.5930774 0.4878329
vt 0.75125 0.4878329
vt 0.8418275 0.4878329
vt 1 0.4878329
vt 0.5025 0.4878329
vt 0.5025 0.4939165
vt 0.5930774 0.4878329
vt 0.5930774 0.4939165
vt 0.75125 0.4878329
vt 0.75125 0.4939165
vt 0.8418275 0.4878329
vt 0.8418275 0.4939165
vt 1 0.4878329
vt 1 0.4939165
vt 0.5025 0.4756657
vt 0.5025 0.4817493
vt 0.5930774 0.4756657
vt 0.5930774 0.4817493
vt 0.75125 0.4756657
vt 0.75125 0.4817493
vt 0.8418275 0.4756657
vt 0.8418275 0.4817493
vt 1 0.4756657
vt 1 0.4817493
f 4/4/4 2/2/2 1/1/1
f 4/4/4 3/3/3 2/2/2
f 8/8/8 6/6/6 5/5/5
f 8/8/8 7/7/7 6/6/6
f 12/12/12 10/10/10 9/9/9
f 12/12/12 11/11/11 10/10/10
f 16/16/16 14/14/14 13/13/13
f 16/16/16 15/15/15 14/14/14
f 20/20/20 18/18/18 17/17/17
f 20/20/20 19/19/19 18/18/18
f 24/24/24 22/22/22 21/21/21
f 24/24/24 23/23/23 22/22/22
f 28/28/28 26/26/26 25/25/25
f 28/28/28 27/27/27 26/26/26
f 32/32/32 30/30/30 29/29/29
f 32/32/32 31/31/31 30/30/30
f 36/36/36 34/34/34 33/33/33
f 36/36/36 35/35/35 34/34/34
f 40/40/40 38/38/38 37/37/37
f 40/40/40 39/39/39 38/38/38
f 44/44/44 42/42/42 41/41/41
f 44/44/44 43/43/43 42/42/42
f 48/48/48 46/46/46 45/45/45
f 48/48/48 47/47/47 46/46/46
f 52/52/52 50/50/50 49/49/49
f 52/52/52 51/51/51 50/50/50
f 56/56/56 54/54/54 53/53/53
f 56/56/56 55/55/55 54/54/54
f 60/60/60 58/58/58 57/57/57
f 60/60/60 59/59/59 58/58/58
f 64/64/64 62/62/62 61/61/61
f 64/64/64 63/63/63 62/62/62
f 68/68/68 66/66/66 65/65/65
f 68/68/68 67/67/67 66/66/66
f 72/72/72 70/70/70 69/69/69
f 72/72/72 71/71/71 70/70/70
f 78/78/78 73/73/73 74/74/74
f 79/79/79 78/78/78 74/74/74
f 79/79/79 74/74/74 75/75/75
f 80/80/80 79/79/79 75/75/75
f 80/80/80 75/75/75 76/76/76
f 81/81/81 80/80/80 76/76/76
f 81/81/81 76/76/76 77/77/77
f 82/82/82 81/81/81 77/77/77
f 88/88/88 84/84/84 83/83/83
f 88/88/88 89/89/89 84/84/84
f 89/89/89 85/85/85 84/84/84
f 89/89/89 90/90/90 85/85/85
f 90/90/90 86/86/86 85/85/85
f 90/90/90 91/91/91 86/86/86
f 91/91/91 87/87/87 86/86/86
f 91/91/91 92/92/92 87/87/87
f 94/94/94 95/95/95 93/93/93
f 96/96/96 95/95/95 94/94/94
f 96/96/96 97/97/97 95/95/95
f 98/98/98 97/97/97 96/96/96
f 98/98/98 99/99/99 97/97/97
f 100/100/100 99/99/99 98/98/98
f 100/100/100 101/101/101 99/99/99
f 102/102/102 101/101/101 100/100/100
f 105/105/105 104/104/104 103/103/103
f 105/105/105 106/106/106 104/104/104
f 107/107/107 106/106/106 105/105/105
f 107/107/107 108/108/108 106/106/106
f 109/109/109 108/108/108 107/107/107
f 109/109/109 110/110/110 108/108/108
f 111/111/111 110/110/110 109/109/109
f 111/111/111 112/112/112 110/110/110
